ffmpeg started on 2016-11-26 at 14:03:04
Report written to "Output/NVENCh264/results/ffmpeg/crowd_run_2160p50ll4500k.log"
Command line:
Tools/ffmpeg/ffmpeg -benchmark -y -i Input/y4m/crowd_run_2160p50.y4m -c:v h264_nvenc -preset ll -b:v 4500k -an Output/NVENCh264/encoded/crowd_run_2160p50ll4500k.mkv
ffmpeg version N-82227-gdb23fde Copyright (c) 2000-2016 the FFmpeg developers
  built with gcc 5.4.0 (Ubuntu 5.4.0-6ubuntu1~16.04.2) 20160609
  configuration: --prefix=/home/jaroslav/ffmpeg_build --pkg-config-flags=--static --extra-cflags=-I/home/jaroslav/ffmpeg_build/include --extra-ldflags=-L/home/jaroslav/ffmpeg_build/lib --bindir=/home/jaroslav/bin --enable-gpl --enable-libass --enable-libfdk-aac --enable-libfreetype --enable-libmp3lame --enable-libopus --enable-libtheora --enable-libvorbis --enable-libvpx --enable-libx264 --enable-libx265 --enable-nvenc --enable-libmfx --enable-libxvid --enable-libgsm --enable-libopencore-amrnb --enable-version3 --enable-nonfree
  libavutil      55. 35.100 / 55. 35.100
  libavcodec     57. 66.101 / 57. 66.101
  libavformat    57. 57.100 / 57. 57.100
  libavdevice    57.  2.100 / 57.  2.100
  libavfilter     6. 66.100 /  6. 66.100
  libswscale      4.  3.100 /  4.  3.100
  libswresample   2.  4.100 /  2.  4.100
  libpostproc    54.  2.100 / 54.  2.100
Input #0, yuv4mpegpipe, from 'Input/y4m/crowd_run_2160p50.y4m':
  Duration: 00:00:10.00, start: 0.000000, bitrate: 4976642 kb/s
    Stream #0:0: Video: rawvideo (I420 / 0x30323449), yuv420p(progressive), 3840x2160, SAR 1:1 DAR 16:9, 50 fps, 50 tbr, 50 tbn, 50 tbc
[h264_nvenc @ 0x2d0b1c0] The variable bitrate rate-control requires the 'qmin' and/or 'qmax' option set.
Output #0, matroska, to 'Output/NVENCh264/encoded/crowd_run_2160p50ll4500k.mkv':
  Metadata:
    encoder         : Lavf57.57.100
    Stream #0:0: Video: h264 (h264_nvenc) (Main) (H264 / 0x34363248), yuv420p, 3840x2160 [SAR 1:1 DAR 16:9], q=-1--1, 4500 kb/s, 50 fps, 1k tbn, 50 tbc
    Metadata:
      encoder         : Lavc57.66.101 h264_nvenc
    Side data:
      cpb: bitrate max/min/avg: 0/0/4500000 buffer size: 9000000 vbv_delay: -1
Stream mapping:
  Stream #0:0 -> #0:0 (rawvideo (native) -> h264 (h264_nvenc))
Press [q] to stop, [?] for help
frame=    3 fps=0.0 q=0.0 size=       0kB time=00:00:00.00 bitrate=N/A speed=   0x    frame=    8 fps=6.9 q=0.0 size=       0kB time=00:00:00.00 bitrate=N/A speed=   0x    frame=   22 fps= 13 q=0.0 size=       0kB time=00:00:00.00 bitrate=N/A speed=   0x    frame=   33 fps= 14 q=49.0 size=       1kB time=00:00:00.04 bitrate= 145.8kbits/s speed=0.0171x    frame=   38 fps= 13 q=49.0 size=       1kB time=00:00:00.14 bitrate=  42.4kbits/s speed=0.0484x    frame=   44 fps= 13 q=49.0 size=       1kB time=00:00:00.26 bitrate=  22.9kbits/s speed=0.0762x    frame=   50 fps= 13 q=49.0 size=       1kB time=00:00:00.38 bitrate=  15.7kbits/s speed=0.0967x    frame=   68 fps= 15 q=49.0 size=       1kB time=00:00:00.74 bitrate=   8.1kbits/s speed=0.166x    frame=   86 fps= 17 q=49.0 size=       1kB time=00:00:01.10 bitrate=   5.4kbits/s speed=0.221x    frame=   95 fps= 12 q=49.0 size=       1kB time=00:00:01.28 bitrate=   4.7kbits/s speed=0.156x    frame=   96 fps= 10 q=49.0 size=       1kB time=00:00:01.30 bitrate=   4.6kbits/s speed=0.136x    frame=  113 fps= 11 q=49.0 size=       1kB time=00:00:01.64 bitrate=   3.6kbits/s speed=0.163x    frame=  131 fps= 12 q=49.0 size=       1kB time=00:00:02.00 bitrate=   3.0kbits/s speed=0.189x    frame=  149 fps= 13 q=49.0 size=       1kB time=00:00:02.36 bitrate=   2.5kbits/s speed=0.213x    frame=  155 fps= 13 q=49.0 size=       1kB time=00:00:02.48 bitrate=   2.4kbits/s speed=0.214x    frame=  163 fps= 13 q=49.0 size=       1kB time=00:00:02.64 bitrate=   2.3kbits/s speed=0.213x    frame=  166 fps= 13 q=49.0 size=       1kB time=00:00:02.70 bitrate=   2.2kbits/s speed=0.209x    frame=  168 fps= 12 q=49.0 size=       1kB time=00:00:02.74 bitrate=   2.2kbits/s speed=0.201x    frame=  185 fps= 13 q=49.0 size=       1kB time=00:00:03.08 bitrate=   1.9kbits/s speed=0.217x    frame=  201 fps= 13 q=49.0 size=       1kB time=00:00:03.40 bitrate=   1.8kbits/s speed=0.227x    frame=  214 fps= 14 q=49.0 size=       1kB time=00:00:03.66 bitrate=   1.6kbits/s speed=0.233x    frame=  230 fps= 14 q=49.0 size=       1kB time=00:00:03.98 bitrate=   1.5kbits/s speed=0.246x    frame=  248 fps= 15 q=49.0 size=       1kB time=00:00:04.34 bitrate=   1.4kbits/s speed=0.259x    frame=  266 fps= 15 q=49.0 size=       1kB time=00:00:04.70 bitrate=   1.3kbits/s speed=0.272x    frame=  273 fps= 15 q=49.0 size=       1kB time=00:00:04.84 bitrate=   1.2kbits/s speed=0.273x    frame=  281 fps= 15 q=49.0 size=    3221kB time=00:00:05.00 bitrate=5275.9kbits/s speed=0.272x    frame=  285 fps= 15 q=49.0 size=    3221kB time=00:00:05.08 bitrate=5192.8kbits/s speed=0.269x    frame=  290 fps= 15 q=49.0 size=    3221kB time=00:00:05.18 bitrate=5092.6kbits/s speed=0.267x    frame=  308 fps= 15 q=49.0 size=    3221kB time=00:00:05.54 bitrate=4761.7kbits/s speed=0.273x    frame=  310 fps= 15 q=49.0 size=    3221kB time=00:00:05.58 bitrate=4727.6kbits/s speed=0.266x    frame=  314 fps= 15 q=49.0 size=    3221kB time=00:00:05.66 bitrate=4660.8kbits/s speed=0.262x    frame=  317 fps= 14 q=49.0 size=    3221kB time=00:00:05.72 bitrate=4611.9kbits/s speed=0.257x    frame=  319 fps= 14 q=49.0 size=    3221kB time=00:00:05.76 bitrate=4579.9kbits/s speed=0.251x    frame=  322 fps= 14 q=49.0 size=    3221kB time=00:00:05.82 bitrate=4532.7kbits/s speed=0.245x    frame=  324 fps= 13 q=49.0 size=    3221kB time=00:00:05.86 bitrate=4501.8kbits/s speed=0.239x    frame=  327 fps= 13 q=49.0 size=    3221kB time=00:00:05.92 bitrate=4456.1kbits/s speed=0.235x    frame=  333 fps= 13 q=49.0 size=    3221kB time=00:00:06.04 bitrate=4367.6kbits/s speed=0.232x    frame=  337 fps= 13 q=49.0 size=    3221kB time=00:00:06.12 bitrate=4310.5kbits/s speed=0.228x    frame=  340 fps= 12 q=49.0 size=    3221kB time=00:00:06.18 bitrate=4268.7kbits/s speed=0.221x    frame=  341 fps= 12 q=49.0 size=    3221kB time=00:00:06.20 bitrate=4254.9kbits/s speed=0.218x    frame=  343 fps= 12 q=49.0 size=    3221kB time=00:00:06.24 bitrate=4227.7kbits/s speed=0.211x    frame=  345 fps= 11 q=49.0 size=    3221kB time=00:00:06.28 bitrate=4200.7kbits/s speed=0.206x    frame=  347 fps= 11 q=49.0 size=    3221kB time=00:00:06.32 bitrate=4174.2kbits/s speed=0.203x    frame=  348 fps= 11 q=49.0 size=    3221kB time=00:00:06.34 bitrate=4161.0kbits/s speed= 0.2x    frame=  349 fps= 11 q=49.0 size=    3221kB time=00:00:06.36 bitrate=4147.9kbits/s speed=0.196x    frame=  350 fps= 11 q=49.0 size=    3221kB time=00:00:06.38 bitrate=4134.9kbits/s speed=0.192x    frame=  353 fps= 10 q=49.0 size=    3221kB time=00:00:06.44 bitrate=4096.4kbits/s speed=0.187x    frame=  355 fps= 10 q=49.0 size=    3221kB time=00:00:06.48 bitrate=4071.1kbits/s speed=0.182x    frame=  357 fps=9.8 q=49.0 size=    3221kB time=00:00:06.52 bitrate=4046.1kbits/s speed=0.179x    frame=  360 fps=9.7 q=49.0 size=    3221kB time=00:00:06.58 bitrate=4009.2kbits/s speed=0.177x    frame=  361 fps=9.6 q=49.0 size=    3221kB time=00:00:06.60 bitrate=3997.1kbits/s speed=0.175x    frame=  365 fps=9.5 q=49.0 size=    3221kB time=00:00:06.68 bitrate=3949.2kbits/s speed=0.175x    frame=  367 fps=9.4 q=49.0 size=    3221kB time=00:00:06.72 bitrate=3925.7kbits/s speed=0.173x    frame=  373 fps=9.4 q=49.0 size=    3221kB time=00:00:06.84 bitrate=3856.9kbits/s speed=0.172x    frame=  391 fps=9.7 q=49.0 size=    3221kB time=00:00:07.20 bitrate=3664.1kbits/s speed=0.179x    frame=  405 fps=9.9 q=49.0 size=    3221kB time=00:00:07.48 bitrate=3526.9kbits/s speed=0.182x    frame=  408 fps=9.8 q=49.0 size=    3221kB time=00:00:07.54 bitrate=3498.9kbits/s speed=0.182x    frame=  415 fps=9.9 q=49.0 size=    3221kB time=00:00:07.68 bitrate=3435.1kbits/s speed=0.182x    frame=  433 fps= 10 q=49.0 size=    3221kB time=00:00:08.04 bitrate=3281.3kbits/s speed=0.189x    frame=  451 fps= 10 q=49.0 size=    3221kB time=00:00:08.40 bitrate=3140.7kbits/s speed=0.195x    frame=  469 fps= 11 q=49.0 size=    3221kB time=00:00:08.76 bitrate=3011.6kbits/s speed=0.201x    frame=  487 fps= 11 q=49.0 size=    3221kB time=00:00:09.12 bitrate=2892.8kbits/s speed=0.207x    frame=  500 fps= 11 q=49.0 Lsize=    6588kB time=00:00:09.98 bitrate=5407.2kbits/s speed=0.224x    
video:6584kB audio:0kB subtitle:0kB other streams:0kB global headers:0kB muxing overhead: 0.064567%
bench: utime=1.260s
bench: maxrss=1408716kB
